<?xml version="1.0" encoding="utf-8"?>
<!-- Generator: Adobe Illustrator 24.0.3, SVG Export Plug-In . SVG Version: 6.00 Build 0)  -->
<svg version="1.1" id="Layer_1" xmlns="http://www.w3.org/2000/svg" xmlns:xlink="http://www.w3.org/1999/xlink" x="0px" y="0px"
	 viewBox="0 0 62 62" style="enable-background:new 0 0 62 62;" xml:space="preserve">
<style type="text/css">
	.st0{fill:#FF69B4;}
	.st1{fill:#FFFFFF;}
</style>
<title>JapanFav2</title>
<circle class="st0" cx="31" cy="31" r="31"/>
<polygon class="st1" points="14.28,42.85 15.44,42.85 16.23,43.59 17.35,43.59 17.35,44.15 16.84,44.66 17.63,44.66 18.28,45.27 
	18.28,46.06 16.89,47.5 16.89,50.2 16.33,50.2 16,49.88 16,50.72 15.07,51.65 15.07,49.6 14.56,49.6 14.56,50.9 14.09,50.9 
	13.48,50.34 13.48,48.34 14.46,47.36 14.46,45.69 13.77,44.99 13.44,45.36 14.14,46.06 13.63,46.52 13.35,46.25 12.55,46.25 
	12.04,45.73 12.04,44.43 12.97,43.5 13.67,43.5 "/>
<polygon class="st1" points="15.21,41.31 15.21,42.47 17.54,42.47 18,42.99 18.52,42.99 18.52,41.54 20.89,41.54 21.68,40.75 
	22.94,40.75 23.82,39.87 26.11,39.87 26.57,40.38 25.69,41.22 25.69,42.66 26.85,43.82 27.27,43.82 28.39,42.71 28.39,42.05 
	29.09,41.36 30.02,41.36 30.02,40.75 29.18,39.96 29.18,39.12 29.69,38.65 30.81,39.77 30.48,40.15 33.33,40.15 33.33,39.4 
	34.26,38.52 34.63,38.52 34.63,39.54 35.23,39.54 35.23,37.68 36.21,37.68 36.59,38.05 36.59,36.93 37,36.51 37.56,36.51 
	37.56,37.12 37.24,37.44 37.24,38.65 38.49,37.35 38.49,36.56 39.29,35.77 38.59,35.02 38.59,33.02 39.1,32.51 39.1,28.04 
	39.84,28.04 40.17,28.41 40.17,25.99 40.78,25.38 40.78,22.68 39.05,21 39.05,18.72 37.66,18.72 37.66,19.75 38.08,19.75 
	38.35,19.47 38.68,19.47 38.68,20.63 37.66,20.63 37.24,20.16 37.24,19.61 36.4,19.61 36.4,21 35.79,21.61 35.79,23.38 36.31,23.84 
	36.31,26.41 35.37,27.34 35.37,28.97 33.88,30.46 33.88,31.16 32.44,32.6 31.6,32.6 30.76,33.39 29.83,33.39 29.83,32.41 
	30.53,31.71 30.07,31.25 29.13,32.18 29.13,34.18 27.78,35.58 27.78,36.88 27.22,37.44 26.48,37.44 26.06,37.07 24.43,37.07 
	24.01,37.49 20.61,37.49 17.58,40.52 16.84,40.52 16.05,41.31 "/>
<polygon class="st1" points="20.47,42.15 19.12,43.5 19.12,45.13 20.19,46.2 20.66,46.2 20.66,45.31 22.1,43.87 22.85,43.87 
	23.5,44.52 23.78,44.24 23.78,43.68 24.62,42.85 24.62,41.77 24.2,41.77 23.64,41.22 22.71,41.22 21.91,42.01 21.91,42.47 
	20.84,42.47 "/>
<polygon class="st1" points="39.71,6.52 39.1,7.17 39.1,11.5 38.59,12.02 38.59,13.55 37.52,13.55 36.77,12.81 36.21,13.37 
	37,14.16 35,16.16 35.89,17.05 35.89,18.95 36.82,18.07 38.35,18.07 36.59,16.3 37.28,15.6 37.89,16.21 38.63,15.46 40.78,15.46 
	42.73,17.42 43.06,17.09 43.06,15.69 44.78,13.97 46.92,13.97 48.27,12.62 47.95,12.29 47.3,12.9 46.88,12.48 46.88,10.48 
	47.25,10.11 46.88,9.78 45.67,10.99 44.69,10.99 43.99,10.34 43.52,10.34 "/>
</svg>
