<svg xmlns="http://www.w3.org/2000/svg" viewBox="0 0 9.18 9.18"><defs><style>.cls-1{fill:#ffb7b5;}</style></defs><title>UpArrow</title><g id="Layer_1" data-name="Layer 1"><path class="cls-1" d="M39.88,46.64a4.59,4.59,0,1,0,4.59-4.59A4.6,4.6,0,0,0,39.88,46.64Zm4.85-2.57,1.67,1.67a.36.36,0,0,1,.11.26.38.38,0,0,1-.11.26.35.35,0,0,1-.51,0l-1-1V49a.37.37,0,0,1-.74,0V45.21l-1,1a.36.36,0,0,1-.51-.51l1.67-1.67a.36.36,0,0,1,.26-.11A.33.33,0,0,1,44.73,44.07Z" transform="translate(-39.88 -42.05)"/></g></svg>